<svg width="18" height="26" viewBox="0 0 18 26" fill="none" xmlns="http://www.w3.org/2000/svg">
<path d="M17.2668 9.40095C17.2668 4.72305 13.4734 0.929688 8.79552 0.929688C4.11762 0.929688 0.32427 4.72305 0.32427 9.40095C0.32427 9.40095 -0.0584759 12.3438 3.29261 17.1237C4.79804 19.2756 8.79552 25.663 8.79552 25.663C8.79552 25.663 12.793 19.2756 14.2984 17.1237C17.6495 12.3438 17.2668 9.40095 17.2668 9.40095ZM8.79552 15.7289C5.38491 15.7289 2.62071 12.9647 2.62071 9.55405C2.62071 6.14343 5.38491 3.37921 8.79552 3.37921C12.2061 3.37921 14.9704 6.14343 14.9704 9.55405C14.9704 12.9647 12.2061 15.7289 8.79552 15.7289Z" fill="#FF5722"/>
</svg>
